<svg id="Layer_1" data-name="Layer 1" xmlns="http://www.w3.org/2000/svg" xmlns:xlink="http://www.w3.org/1999/xlink" viewBox="0 0 50 50"><defs><style>.cls-1,.cls-3{fill:#eee;}.cls-1,.cls-2{stroke:#231815;}.cls-1,.cls-2,.cls-3{stroke-miterlimit:10;}.cls-2{fill:#fff;}.cls-3{stroke:url(#linear-gradient);}</style><linearGradient id="linear-gradient" x1="25" y1="26.63" x2="25" y2="2.37" gradientUnits="userSpaceOnUse"><stop offset="0"/><stop offset="1" stop-color="#fff" stop-opacity="0"/></linearGradient></defs><title>Artboard 1</title><path class="cls-1" d="M47.26,37.26l-3.42-9.4a7.5,7.5,0,0,0-13.52-1.23H19.68A7.5,7.5,0,0,0,6.16,27.86l-3.42,9.4a7.5,7.5,0,0,0,14.1,5.13l.28-.76H32.88l.28.76a7.5,7.5,0,0,0,14.1-5.13Z"/><circle class="cls-2" cx="11.5" cy="35.13" r="6"/><path class="cls-2" d="M14,33.63H13v-1a1.5,1.5,0,1,0-3,0v1H9a1.5,1.5,0,0,0,0,3h1v1a1.5,1.5,0,0,0,3,0v-1h1a1.5,1.5,0,0,0,0-3Z"/><rect class="cls-2" x="34.73" y="29.36" width="3" height="8" rx="1.5" ry="1.5" transform="translate(34.2 -15.85) rotate(45)"/><rect class="cls-2" x="38.27" y="32.89" width="3" height="8" rx="1.5" ry="1.5" transform="translate(37.73 -17.31) rotate(45)"/><line class="cls-3" x1="25" y1="26.63" x2="25" y2="2.38"/></svg>