<svg xmlns="http://www.w3.org/2000/svg" viewBox="0 0 37.61 38.87"><defs><style>.cls-1{fill:#231815;}</style></defs><title>home2</title><g id="Layer_2" data-name="Layer 2"><g id="Layer_1-2" data-name="Layer 1"><path class="cls-1" d="M18.81,1a2.71,2.71,0,0,1,1.66.57L35.57,13.4a2.69,2.69,0,0,1-1.66,4.81,2.69,2.69,0,0,0-2.69,2.7V35.18C16.32,20.28,8.78,13,5.83,10.43L17.14,1.57A2.72,2.72,0,0,1,18.81,1M4.35,9.33a5.38,5.38,0,0,1,1.48,1.1l-.53.42c-.76-1-1.13-1.52-1-1.52m1,1.52c4.65,5.91,24.09,27,23.22,27H9.09A2.68,2.68,0,0,1,6.4,35.18V20.91a2.7,2.7,0,0,0-2.7-2.7A2.69,2.69,0,0,1,2,13.4L5.3,10.85M18.81,0a3.67,3.67,0,0,0-2.28.79L5.86,9.14C5,8.46,4.71,8.33,4.35,8.33a1.09,1.09,0,0,0-.94.58c-.25.53-.06,1,.49,1.76L1.42,12.61a3.69,3.69,0,0,0,2.28,6.6,1.7,1.7,0,0,1,1.7,1.7V35.18a3.69,3.69,0,0,0,3.69,3.69H28.52a1.05,1.05,0,0,0,.94-.6c.39-.88.41-.92-11.31-14.13l-3.61-4.08q6.16,6,16,15.83a1,1,0,0,0,.71.29.9.9,0,0,0,.38-.08,1,1,0,0,0,.62-.92V20.91a1.7,1.7,0,0,1,1.69-1.7,3.69,3.69,0,0,0,2.28-6.6L21.08.79A3.66,3.66,0,0,0,18.81,0Z"/></g></g></svg>