<svg xmlns="http://www.w3.org/2000/svg" viewBox="0 0 30.97 18.89"><defs><style>.cls-1{fill:none;stroke:#57421e;stroke-linecap:round;stroke-linejoin:round;}.cls-2{font-size:12px;fill:#57421e;font-family:MyriadPro-Regular, Myriad Pro;}</style></defs><title>rank3</title><g id="Layer_2" data-name="Layer 2"><g id="Layer_1-2" data-name="Layer 1"><polyline class="cls-1" points="10.47 4.97 10.97 4.68 10.49 6.62 13.87 4.67 10.5 7.8 15.93 4.66"/><polyline class="cls-1" points="0.5 8.4 1 8.11 0.5 9.82 3.47 8.11 0.5 11.99 7.24 8.1 0.5 13.34 9.6 8.09 0.5 15.11 18.61 4.66 0.5 16.71 20.44 5.2 0.5 18.2 20.45 6.68 3.53 18.39 20.46 8.62 5.88 18.39 20.46 9.97 8.06 18.39 20.47 11.22 12.02 18.38 23.87 11.54 14.95 18.38 26.81 11.53 18.45 18.38 30.32 11.52 20.9 18.37 30.45 12.86 24.49 18.37 30.45 14.93 26.81 18.37 30.46 16.26 29.1 18.36 30.47 17.58"/><text class="cls-2" transform="translate(22.15 10.04)">3</text></g></g></svg>