<svg xmlns="http://www.w3.org/2000/svg" viewBox="0 0 41.44 43.61"><defs><style>.cls-1{fill:#fce9b3;}.cls-2{font-size:30px;fill:#f5c71d;font-family:MyriadPro-Regular, Myriad Pro;}</style></defs><title>rank1</title><g id="Layer_2" data-name="Layer 2"><g id="Layer_1-2" data-name="Layer 1"><path class="cls-1" d="M38.23,35.47c-.54.79-1,1.89-1.7,2.87a7,7,0,0,1-2.84,2.5,23.12,23.12,0,0,1-19.84,1A22.6,22.6,0,0,1,1.07,28,21.85,21.85,0,0,1,3,10.14,21.07,21.07,0,0,1,9.12,3.63,20.12,20.12,0,0,1,17.25.37a20.85,20.85,0,0,1,9.23.32,20,20,0,0,1,7.64,4.08,19.16,19.16,0,0,1,6.73,15A22.09,22.09,0,0,0,40.37,15a13.77,13.77,0,0,0-.76-2.3,10.35,10.35,0,0,0-1.28-2,18.8,18.8,0,0,0-3.39-3.19,17.38,17.38,0,0,0-3.84-2,15.27,15.27,0,0,0-8.17-.8,14.67,14.67,0,0,0-6.79,3.26,28.16,28.16,0,0,0-2.62,2.62c-.76.93-1.54,1.82-2.23,2.79A12.49,12.49,0,0,0,9.4,17,14.48,14.48,0,0,0,9,18.89l-.1.89v.85a10.91,10.91,0,0,0,1.3,5A7.21,7.21,0,0,0,11.09,27a2.19,2.19,0,0,0,.56.58c.26.16.15,0-.22-.64a3.8,3.8,0,0,0,2.25,1.48c.87.24,1.76.32,2.55.6,1.48.74,2.77,1.49,4.24,2.16a10.79,10.79,0,0,0,4.82,1.1,4.33,4.33,0,0,1,1-.6,2.22,2.22,0,0,1,1.09-.39A13.67,13.67,0,0,0,34.16,29,11.86,11.86,0,0,0,37.09,26a11.63,11.63,0,0,0,1.75-4.37l.34,1.3c.29-.59.54-1.05.74-1.53l.6-1.65a15,15,0,0,1,.76,7.46A21.29,21.29,0,0,1,38.23,35.47Z"/><text class="cls-2" transform="translate(14.89 28.59)">1</text></g></g></svg>