<svg xmlns="http://www.w3.org/2000/svg" viewBox="0 0 46.5 46.79"><defs><style>.cls-1{opacity:0.8;}.cls-2{fill:#f4eae2;}.cls-3{fill:#eeddd1;}.cls-4{fill:#ecdacd;}.cls-5{fill:#f5ebe4;}.cls-6{fill:#e5ccba;}.cls-7{fill:#e3c7b4;}.cls-8{font-size:30px;fill:#9d3924;font-family:MyriadPro-Regular, Myriad Pro;}</style></defs><title>rank3</title><g id="Layer_2" data-name="Layer 2"><g id="Layer_1-2" data-name="Layer 1"><g class="cls-1"><g class="cls-1"><path class="cls-2" d="M31,12.8c-1.08-.57-2.14-1.16-3.26-1.73A13.65,13.65,0,0,0,24.12,9.9c-2.52-.47-5.27.37-6.35,2.65A8.42,8.42,0,0,0,17.14,14l.66-.13a17.69,17.69,0,0,1,6.85.21,18.79,18.79,0,0,1,5.67,2.39,12.55,12.55,0,0,1,4,2.26,5.88,5.88,0,0,1,2,4.62c0,.39,1.24.44,1.87.47l2.5-1.28a16,16,0,0,0-2.52-5.23,31.34,31.34,0,0,0-3.64-4.12,2.4,2.4,0,0,0-1.93-.45C31.88,12.86,31.26,13,31,12.8Z"/><path class="cls-3" d="M40.58,22.75l.17-.09c0-.19-.08-.39-.15-.58C40.61,22.3,40.58,22.53,40.58,22.75Z"/><path class="cls-4" d="M35.81,15c-.25-.18-.47-.37-.7-.55s-.45-.35-.66-.54c-.39-.41-.84-.74-1.22-1.15-.95,0-1.92.29-2.22,0-1.08-.57-2.14-1.16-3.26-1.73A13.65,13.65,0,0,0,24.12,9.9c-2.52-.47-5.27.37-6.35,2.65A9.43,9.43,0,0,0,17.14,14l.72-.13a16.64,16.64,0,0,1,4.86-.11l.23-.2a1,1,0,0,1,1.26-.21l.59.32a1.65,1.65,0,0,0,.56.31,4.85,4.85,0,0,1,3.1.81c.91.56,1.7,1.2,2.76,1.8a7.2,7.2,0,0,0,1.56.45,3,3,0,0,1,.85.33,1.59,1.59,0,0,1,.56.62,2.62,2.62,0,0,1,.39,1.06,5.72,5.72,0,0,1,1.77,4.38c0,.4,1.25.45,1.88.49.42-.22.85-.44,1.29-.65a10.07,10.07,0,0,0-.09-2.57,20.46,20.46,0,0,0-.66-2.53,21.81,21.81,0,0,0-2.85-3.56A1.45,1.45,0,0,0,35.81,15Z"/><path class="cls-3" d="M37.25,13.74c-.14-.21-1,.15-1.33.89a21.81,21.81,0,0,1,2.85,3.56C38.32,16.77,37.79,15.36,37.25,13.74Z"/><path class="cls-5" d="M41,11.34a11.18,11.18,0,0,0-4.15-4l-1.18-.72c-.38-.23-.78-.43-1.14-.67a13.14,13.14,0,0,1-2.07-1.55c-.69-.6-1.39-1.21-2.09-1.94S28.91,1,28.19.24L26.34,0A25.35,25.35,0,0,0,1.16,18.1,26.75,26.75,0,0,0,.21,29.17a15.93,15.93,0,0,0,5.48,9.38A21.5,21.5,0,0,0,15.14,43c1.9.63,3.52,1.41,5.27,2.1a21.17,21.17,0,0,0,5.79,1.6,12.65,12.65,0,0,0,7.72-1.61,15.05,15.05,0,0,0,5.4-5.32,19.44,19.44,0,0,0,2.44-6.85A27.67,27.67,0,0,0,42,26.08c-.12-1.22-1.5-1.91-2.8-2.14s-2.58-.21-2.61,0a11.39,11.39,0,0,1,0,4,12.47,12.47,0,0,1-1.48,3.7,13.6,13.6,0,0,1-2.66,3,14.67,14.67,0,0,1-3.45,2,15.65,15.65,0,0,1-3.86.88,16.93,16.93,0,0,1-4-.21,17,17,0,0,1-3.81-1.19A19.36,19.36,0,0,1,13.8,34,12,12,0,0,1,10,28.7a11.66,11.66,0,0,1-.49-6.37A10.63,10.63,0,0,1,17.14,14a8.42,8.42,0,0,1,.63-1.49c1.08-2.28,3.83-3.12,6.35-2.65a13.65,13.65,0,0,1,3.63,1.17c1.12.57,2.18,1.16,3.26,1.73.25.18.87.06,1.63,0a2.4,2.4,0,0,1,1.93.45,31.34,31.34,0,0,1,3.64,4.12,16,16,0,0,1,2.52,5.23,15.88,15.88,0,0,0,4.67-3.29C44,16.34,42.18,14,41,11.34Z"/><path class="cls-6" d="M41,11.34c1.23,2.67,3,5,4.45,8a4.89,4.89,0,0,0,1.07-2.16c.18-4.35-2.21-8.85-5.83-11.76a20.77,20.77,0,0,0-6-3.47A28.65,28.65,0,0,0,28.19.24c.72.75,1.42,1.53,2.13,2.17s1.4,1.34,2.09,1.94A13.14,13.14,0,0,0,34.48,5.9c.36.24.76.44,1.14.67l1.18.72A11.18,11.18,0,0,1,41,11.34Z"/><path class="cls-4" d="M41,11.34c1.18,2.55,2.88,4.78,4.24,7.56a11.77,11.77,0,0,0,0-1.57,11.34,11.34,0,0,0-.36-1.53,21.86,21.86,0,0,0-3.94-7A48.62,48.62,0,0,0,35,2.93,25.94,25.94,0,0,1,46.5,16.38a13.63,13.63,0,0,0-1.79-6.2,17.37,17.37,0,0,0-4.39-5,11.16,11.16,0,0,0-1.37-1c-.47-.3-.94-.61-1.43-.89a24.36,24.36,0,0,0-3-1.39A29.38,29.38,0,0,0,28.2.26c.72.74,1.42,1.52,2.13,2.16s1.4,1.33,2.08,1.93A13.14,13.14,0,0,0,34.48,5.9c.36.24.76.44,1.14.67l1.18.72A11.18,11.18,0,0,1,41,11.34Z"/><path class="cls-7" d="M34.61,6.45a25.94,25.94,0,0,1,5.7,6.43A35.29,35.29,0,0,1,44,20.74a12,12,0,0,0,1.19-1,5.73,5.73,0,0,0,0-.82c-1.36-2.78-3.06-5-4.24-7.56a11.18,11.18,0,0,0-4.15-4l-1.18-.72c-.38-.23-.78-.43-1.14-.67a13.14,13.14,0,0,1-2.07-1.55c-.68-.6-1.39-1.21-2.08-1.93S28.92,1,28.2.26L26.47.05A25.09,25.09,0,0,0,6.23,8.83a50.84,50.84,0,0,0-3.76,9.08A34.26,34.26,0,0,0,1,27.83a29.21,29.21,0,0,1,.13-9.6A26.7,26.7,0,0,0,.19,29a15.47,15.47,0,0,0,4.23,8.28,5.22,5.22,0,0,1,3.89.88c1.92,1.37,3.72,2.92,6.26,3,.26.15-.23,1,.34,1.28a10.35,10.35,0,0,0-4.83-1.21,19.75,19.75,0,0,0,2.45,1A20.3,20.3,0,0,0,15,43c3,1,5.32,2.37,8.4,3.24.33,0,.66-.08,1-.12a7.91,7.91,0,0,0,2.4-.68c.39-.17.77-.36,1.14-.56s.72-.47,1.06-.71a14.85,14.85,0,0,1-1.94.28,3.31,3.31,0,0,1,.75-.43,4.59,4.59,0,0,1,.79-.34c.53-.19,1.09-.26,1.55-.42a10,10,0,0,1-1.15.91,17.17,17.17,0,0,0,2.22-.56,19.65,19.65,0,0,0,2.23-.83c-1.82.83-3.59,1.9-5.23,2.82a24.38,24.38,0,0,0,5.2-2c.84-.37,1.6-.87,2.43-1.27s1.64-.89,2.5-1.37l-.11.33a18.07,18.07,0,0,0,3.3-7.44A27.83,27.83,0,0,0,42,26.17c-.25-2.49-5.35-2.55-5.39-2.13A11,11,0,0,1,33,34.11a13.54,13.54,0,0,1-10.27,3.36,12.1,12.1,0,0,0,2.74,2A4,4,0,0,1,26.8,40c-.47-.18-.92-.38-1.34-.58a11,11,0,0,0-1.79-.31,5.12,5.12,0,0,1-1.74-.62c-.18-.37-.81-.53-1.28.34a3.85,3.85,0,0,0-1.14-.65c-.41-.15-.81-.34-1.22-.48a3.94,3.94,0,0,1-2.08-1.48c-.08,0-.06-.37,0-.74-.43-.21-.81-.49-1.24-.73l-1.19-.84A13.11,13.11,0,0,1,11,30.85a13.16,13.16,0,0,1-1.5-3.79,12.08,12.08,0,0,1-.13-4,13.8,13.8,0,0,1,.42-1.93,12.33,12.33,0,0,1,.76-1.79c-.53.47-.92,1-1.45,1.53l-1.43,1.7A2.75,2.75,0,0,0,7,24.16a6.1,6.1,0,0,0,.24,2.15,15.25,15.25,0,0,0,2.1,4.33,1.09,1.09,0,0,1,.18,1,2.17,2.17,0,0,0,.08,1.13c-1.9-.47-2.81-2.1-3.24-3.81S6.16,25.39,6,23.71c-.15-2.29.93-4.94,2.39-7.16s3.15-4.13,4.46-6.32a3.4,3.4,0,0,1,1-1.1,4.45,4.45,0,0,1,1.35-.52A6.3,6.3,0,0,1,18,8.83a2.92,2.92,0,0,1-1.68,1.24,14.69,14.69,0,0,0-5.45,4,13.17,13.17,0,0,0-3,6.19,26.24,26.24,0,0,1,3.93-5.67,9,9,0,0,1,5.7-2.95c-.55.24-1.05.55-1.64.75a13.79,13.79,0,0,0-1.62.84c-.26.17-.51.34-.75.53a7.73,7.73,0,0,0-.6.67,3.33,3.33,0,0,0-.64,1.71l.87-.07a10,10,0,0,1,4-2,9.43,9.43,0,0,1,.63-1.47c1.08-2.28,3.83-3.12,6.35-2.65a13.65,13.65,0,0,1,3.63,1.17c1.12.57,2.18,1.16,3.26,1.73.3.25,1.27-.06,2.22,0A13,13,0,0,0,29,9.68a4.07,4.07,0,0,1,1.2,2.1,2.82,2.82,0,0,1-.95-.59c-.29-.24-.57-.48-.86-.76a4.6,4.6,0,0,0-.94-.7,2.33,2.33,0,0,0-1.13-.37,4.2,4.2,0,0,1,1.37,0A4.49,4.49,0,0,1,29,9.68c-.22-.19-.44-.39-.68-.56s-.51-.3-.78-.44A13.17,13.17,0,0,0,25.82,8a2.58,2.58,0,0,1,1.74.1,5.67,5.67,0,0,1,1.5.89c.24.18.47.35.7.49a4.88,4.88,0,0,0,.71.44,3.09,3.09,0,0,0,.81.27,3.25,3.25,0,0,0,1,.08A12.63,12.63,0,0,1,31,9.35a10.29,10.29,0,0,1,1.28.87h0c1.32.76,2.88,1.28,4.32,2-1-1.05-1.8-2.12-2.75-3.21a9.31,9.31,0,0,0-3.54-2.48,10,10,0,0,0-1.44-.32,5.29,5.29,0,0,1,1.44.32,14.1,14.1,0,0,1,2.4,1,14.67,14.67,0,0,1,5.46,5.28A16.58,16.58,0,0,1,40,17.34a20.88,20.88,0,0,1,.57,4.74c.07.19.1.39.15.58.4-.2.81-.42,1.2-.64A22.4,22.4,0,0,0,34.61,6.45Z"/></g></g><text class="cls-8" transform="translate(16.02 32.74)">3</text></g></g></svg>