<svg xmlns="http://www.w3.org/2000/svg" viewBox="0 0 30.97 25.89"><defs><style>.cls-1{fill:none;stroke:#f5c132;stroke-linecap:round;stroke-linejoin:round;}.cls-2{font-size:12px;fill:#f5c132;font-family:MyriadPro-Regular, Myriad Pro;}</style></defs><title>rank1</title><g id="Layer_2" data-name="Layer 2"><g id="Layer_1-2" data-name="Layer 1"><polyline class="cls-1" points="10.47 11.97 10.97 11.68 10.49 13.62 13.87 11.67 10.5 14.8 15.93 11.66"/><polyline class="cls-1" points="0.5 15.4 1 15.11 0.5 16.82 3.47 15.11 0.5 18.99 7.24 15.1 0.5 20.34 9.6 15.09 0.5 22.11 18.61 11.66 0.5 23.71 20.44 12.2 0.5 25.2 20.45 13.69 3.53 25.39 20.46 15.62 5.88 25.39 20.46 16.97 8.06 25.39 20.47 18.22 12.02 25.38 23.87 18.54 14.95 25.38 26.81 18.53 18.45 25.38 30.32 18.52 20.9 25.37 30.45 19.86 24.49 25.37 30.45 21.93 26.81 25.37 30.46 23.26 29.1 25.36 30.47 24.58"/><text class="cls-2" transform="translate(12.28 10.04)">1</text></g></g></svg>