<svg xmlns="http://www.w3.org/2000/svg" viewBox="0 0 40.47 36.63"><defs><style>.cls-1{opacity:0.85;}.cls-10,.cls-2,.cls-5,.cls-6,.cls-7,.cls-8{opacity:0.9;}.cls-3{fill:#eeeded;}.cls-4,.cls-5{fill:#d8d7d7;}.cls-6{fill:#dedddd;}.cls-12,.cls-7{fill:#dedcdc;}.cls-15,.cls-8{fill:#ebeaea;}.cls-9{fill:#e2e1e1;}.cls-10{fill:#e8e7e7;}.cls-11{fill:#e0dfdf;}.cls-13{fill:#f3f3f3;}.cls-14{fill:#eae9e9;}.cls-16{font-size:30px;fill:#a5a5a5;font-family:MyriadPro-Regular, Myriad Pro;}</style></defs><title>rank2</title><g id="Layer_2" data-name="Layer 2"><g id="Layer_1-2" data-name="Layer 1"><g class="cls-1"><g class="cls-2"><path class="cls-3" d="M3.17,22.33a2.82,2.82,0,0,1,.61-.95l-.26-1.71,0-.78-.11.85-.07.85-.09.87Z" transform="translate(0 -0.95)"/><path class="cls-3" d="M8.11,34.44a8,8,0,0,0-.88-1.34c-.34-.51-.78-1-1.2-1.59a19,19,0,0,1-2.34-3.88A14.9,14.9,0,0,0,8.11,34.44Z" transform="translate(0 -0.95)"/><path class="cls-3" d="M18.3,32.39a5.35,5.35,0,0,1-.55-.51l-.79,0-.79-.12a10.86,10.86,0,0,1-1.58-.34l.55.49a12.25,12.25,0,0,0,1.57.35C17.24,32.31,17.77,32.32,18.3,32.39Z" transform="translate(0 -0.95)"/><path class="cls-3" d="M4.79,22c.17.67.46,1.31.65,2s.46,1.37.8,2A15.76,15.76,0,0,0,8.56,30a10.58,10.58,0,0,0,3.52,2.86,7.21,7.21,0,0,0,2.07.65,5.28,5.28,0,0,0,2.06,0c-.32-.32-.64-.62-1-.92l-.93-1a14,14,0,0,1-5.81-3.9,11.53,11.53,0,0,1-2.3-3.59,17,17,0,0,1-.64-1.73,15.72,15.72,0,0,1-.35-1.79,3.18,3.18,0,0,0-1.44.77l.39,1.56.53,1.51C4.78,23.61,4.75,22.84,4.79,22Z" transform="translate(0 -0.95)"/><path class="cls-3" d="M13.94,31.18a13.09,13.09,0,0,1-5.43-3.46,14,14,0,0,0,5.81,3.9A5.46,5.46,0,0,1,13.94,31.18Z" transform="translate(0 -0.95)"/><path class="cls-3" d="M6.14,30.85a10,10,0,0,1-1.44-6.4l-.53-1.51-.39-1.56a2.82,2.82,0,0,0-.61.95,14.4,14.4,0,0,0,.5,4.54A8.81,8.81,0,0,0,6.14,30.85Z" transform="translate(0 -0.95)"/><path class="cls-3" d="M3.69,27.63A16.62,16.62,0,0,1,3,23a7,7,0,0,0,0,2.19A10.9,10.9,0,0,0,3.69,27.63Z" transform="translate(0 -0.95)"/><path class="cls-3" d="M6.21,24.13a11.53,11.53,0,0,0,2.3,3.59A13.57,13.57,0,0,1,6.21,24.13Z" transform="translate(0 -0.95)"/><path class="cls-3" d="M21.6,32.13a6.56,6.56,0,0,1-1-.2c-.29,0-.59,0-.89,0l-.89,0H18.4l-.65,0a5.35,5.35,0,0,0,.55.51l1.67,0C20.51,32.27,21.07,32.26,21.6,32.13Z" transform="translate(0 -0.95)"/><path class="cls-3" d="M27.18,33.89c-.2,0-.4-.06-.59-.08a16.78,16.78,0,0,1-2.3.77l.74-.09.72-.17A8.1,8.1,0,0,0,27.18,33.89Z" transform="translate(0 -0.95)"/><path class="cls-3" d="M5.43,20.55a1.29,1.29,0,0,0-.21.06,15.72,15.72,0,0,0,.35,1.79,17,17,0,0,0,.64,1.73,12,12,0,0,1-.56-1.76A11.17,11.17,0,0,1,5.43,20.55Z" transform="translate(0 -0.95)"/><path class="cls-3" d="M26.59,33.81a17,17,0,0,0,4-2.55,15.31,15.31,0,0,0,3-3.62,18.91,18.91,0,0,1-7.2,4.07,9.64,9.64,0,0,1-4.81.42c-.53.13-1.09.14-1.63.23l-1.67,0a5.9,5.9,0,0,0,1.78.81,10.46,10.46,0,0,0,2,.31C23.55,33.65,25,33.53,26.59,33.81Z" transform="translate(0 -0.95)"/><path class="cls-3" d="M15.14,31.87l-.82-.25.93,1c.32.3.64.6,1,.92a5.28,5.28,0,0,1-2.06,0,7.21,7.21,0,0,1-2.07-.65A10.58,10.58,0,0,1,8.56,30a15.76,15.76,0,0,1-2.32-3.94c-.34-.66-.52-1.38-.8-2S5,22.71,4.79,22c0,.8,0,1.57-.09,2.41a17.12,17.12,0,0,0,7.84,8.73,16.25,16.25,0,0,0,11.75,1.4A12.22,12.22,0,0,1,15.14,31.87Z" transform="translate(0 -0.95)"/><path class="cls-3" d="M18.3,32.39c-.53-.07-1.06-.08-1.59-.17a12.25,12.25,0,0,1-1.57-.35,12.22,12.22,0,0,0,9.15,2.71,16.78,16.78,0,0,0,2.3-.77c-1.61-.28-3-.16-4.47-.3a10.46,10.46,0,0,1-2-.31A5.9,5.9,0,0,1,18.3,32.39Z" transform="translate(0 -0.95)"/><path class="cls-3" d="M15.14,31.87l-.55-.49a3.75,3.75,0,0,1-.65-.2,5.46,5.46,0,0,0,.38.44Z" transform="translate(0 -0.95)"/><path class="cls-3" d="M3.52,18.44l0,.45,0,.78.26,1.71a3.18,3.18,0,0,1,1.44-.77l-.11-1c0-.33,0-.66,0-1a14.41,14.41,0,0,1,.17-2A12.31,12.31,0,0,1,6.51,13c0-.36,0-.71,0-1.05A19.92,19.92,0,0,0,3.52,18.44Z" transform="translate(0 -0.95)"/><path class="cls-3" d="M14.59,31.38a3.68,3.68,0,0,1-.4-.39l-.68-.33.43.52A3.75,3.75,0,0,0,14.59,31.38Z" transform="translate(0 -0.95)"/><polygon class="cls-3" points="18.4 30.97 17.73 30.9 17.75 30.93 18.4 30.97"/><path class="cls-3" d="M17.75,31.88l0,0A11.61,11.61,0,0,1,14.19,31a3.68,3.68,0,0,0,.4.39,10.86,10.86,0,0,0,1.58.34l.79.12Z" transform="translate(0 -0.95)"/><path class="cls-3" d="M5.43,20.55a11.17,11.17,0,0,0,.22,1.82,12,12,0,0,0,.56,1.76,13.57,13.57,0,0,0,2.3,3.59,13.09,13.09,0,0,0,5.43,3.46l-.43-.52a10.26,10.26,0,0,1-3.63-3,14.29,14.29,0,0,1-3-4.18,9.74,9.74,0,0,1-.82-5A51.06,51.06,0,0,1,6.51,13a12.31,12.31,0,0,0-1.24,3.65,14.41,14.41,0,0,0-.17,2c0,.33,0,.66,0,1l.11,1A1.29,1.29,0,0,1,5.43,20.55Z" transform="translate(0 -0.95)"/><path class="cls-3" d="M11.28,2.31A16,16,0,0,0,6,7.64,18.16,18.16,0,0,0,3.6,14.5a13.87,13.87,0,0,1,4.76-5c.16-.19.31-.38.45-.58l.48-.54c0-.55,0-1.13.26-1.27A15.28,15.28,0,0,1,11,6.45c1.43-1.59,2.92-3.27,4.85-5.23A17.42,17.42,0,0,0,11.28,2.31Z" transform="translate(0 -0.95)"/><path class="cls-3" d="M7.87,10.1c.48-.3,1-.56,1.46-.89V9a9.38,9.38,0,0,0-1,.56C8.21,9.71,8,9.89,7.87,10.1Z" transform="translate(0 -0.95)"/><path class="cls-3" d="M18.18,1.11,17,1.13a6.59,6.59,0,0,0-1.17.09c-1.93,2-3.42,3.64-4.85,5.23a40.17,40.17,0,0,1,4.69-1.53c.81-.51.78-2.85,1.86-2.72A19.49,19.49,0,0,1,23,3.86a14.88,14.88,0,0,0,5.21,1.47,16.48,16.48,0,0,1,6.29,5.13,31.2,31.2,0,0,1,4,7.54,18.56,18.56,0,0,0-2.63-8.06A18,18,0,0,0,30.69,4.5,19.69,19.69,0,0,0,18.18,1.11Z" transform="translate(0 -0.95)"/><path class="cls-3" d="M9.33,9l0-.56-.48.54c-.14.2-.29.39-.45.58A9.38,9.38,0,0,1,9.33,9Z" transform="translate(0 -0.95)"/><path class="cls-3" d="M21.6,32.13l1-.22c.32-.07.62-.2.93-.3a9.75,9.75,0,0,1-1.42.22l-.71.08c-.24,0-.48,0-.72,0A6.56,6.56,0,0,0,21.6,32.13Z" transform="translate(0 -0.95)"/><polygon class="cls-3" points="3.43 17.3 3.46 17.75 3.52 17.49 3.55 17.1 3.43 17.3"/><path class="cls-3" d="M2.19,25.12a9.29,9.29,0,0,1,1.24-6.87c0-.63,0-1.25,0-1.88s.1-1.25.18-1.87A14.83,14.83,0,0,0,2.19,25.12Z" transform="translate(0 -0.95)"/><path class="cls-3" d="M3.55,18.05l0,.39a19.92,19.92,0,0,1,3-6.49v-.27c.09-.64.69-1.13,1.34-1.58.15-.21.34-.39.49-.59a13.87,13.87,0,0,0-4.76,5c-.08.62-.12,1.25-.18,1.87s0,1.25,0,1.88Z" transform="translate(0 -0.95)"/><path class="cls-3" d="M3,23a4.78,4.78,0,0,1,.22-.7l0-.87.09-.87.07-.85.11-.85V18.7l-.24,1-.14,1.08A16.1,16.1,0,0,0,3,23Z" transform="translate(0 -0.95)"/><polygon class="cls-3" points="3.47 17.94 3.52 17.49 3.46 17.75 3.47 17.94"/><path class="cls-3" d="M26.59,33.81c.19,0,.39,0,.59.08a8.1,8.1,0,0,1-1.43.43l-.72.17-.74.09a16.25,16.25,0,0,1-11.75-1.4A17.12,17.12,0,0,1,4.7,24.45a10,10,0,0,0,1.44,6.4,8.81,8.81,0,0,1-2.47-4,14.4,14.4,0,0,1-.5-4.54A4.78,4.78,0,0,0,3,23a16.62,16.62,0,0,0,.74,4.6A19,19,0,0,0,6,31.51c.42.57.86,1.08,1.2,1.59a8,8,0,0,1,.88,1.34,14.9,14.9,0,0,1-4.42-6.81A10.9,10.9,0,0,1,3,25.22,7,7,0,0,1,3,23a16.1,16.1,0,0,1,.13-2.21l.14-1.08.24-1,0-.45a9.29,9.29,0,0,0-1.24,6.87A14.83,14.83,0,0,1,3.6,14.5,18.16,18.16,0,0,1,6,7.64a16,16,0,0,1,5.25-5.33,17.88,17.88,0,0,0-9,7.9A17.61,17.61,0,0,0,.52,23a8.7,8.7,0,0,0,.71,2.87,14.91,14.91,0,0,0,1.58,2.63A21.79,21.79,0,0,1,5.2,32.09a13.4,13.4,0,0,0,1.34,1.76,6.28,6.28,0,0,0,1.8,1.26A26,26,0,0,0,24.94,37a24.64,24.64,0,0,0,14.59-9.56c1.28-1.71.91-4.71-.16-7.11a3.14,3.14,0,0,0-1.3-1.48,13.75,13.75,0,0,1-4.46,8.81,15.31,15.31,0,0,1-3,3.62A17,17,0,0,1,26.59,33.81Z" transform="translate(0 -0.95)"/><path class="cls-3" d="M26.41,31.71a18.91,18.91,0,0,0,7.2-4.07A14.67,14.67,0,0,0,35.37,23a13.87,13.87,0,0,0,0-4.81,2.52,2.52,0,0,0-1.45.42c-.67.2-.94.49-1,.84a2.23,2.23,0,0,0,.19,1.31c.13.5.36,1.1.46,1.68a3.05,3.05,0,0,1-.08,1.63,12.47,12.47,0,0,1-4.09,5,14.33,14.33,0,0,1-5.86,2.49c-.31.1-.61.23-.93.3l-1,.22A9.64,9.64,0,0,0,26.41,31.71Z" transform="translate(0 -0.95)"/><path class="cls-3" d="M38.07,18.83a4.76,4.76,0,0,0-2.71-.63,13.87,13.87,0,0,1,0,4.81,14.67,14.67,0,0,1-1.76,4.63A13.75,13.75,0,0,0,38.07,18.83Z" transform="translate(0 -0.95)"/><path class="cls-4" d="M18.33,32.41l0,0h0Z" transform="translate(0 -0.95)"/><path class="cls-4" d="M6.21,24.13a11.53,11.53,0,0,0,2.3,3.59A13.57,13.57,0,0,1,6.21,24.13Z" transform="translate(0 -0.95)"/><path class="cls-4" d="M20.83,32l-.9,0c-.29,0-.59,0-.88,0h-.24l-.16.16.44.15c-.28.06-.53.06-.77.1.56,0,1.11,0,1.66,0s1.09-.09,1.62-.22A4.05,4.05,0,0,1,20.83,32Z" transform="translate(0 -0.95)"/><polygon class="cls-4" points="6.38 12.43 6.39 12.29 6.32 12.42 6.38 12.43"/><path class="cls-4" d="M6.31,14.24v-.09l-.32,0-.18.48A2.13,2.13,0,0,1,6.31,14.24Z" transform="translate(0 -0.95)"/><path class="cls-4" d="M27.18,33.89c-.2,0-.4-.06-.59-.08a16.78,16.78,0,0,1-2.3.77l.74-.09.72-.17A8.1,8.1,0,0,0,27.18,33.89Z" transform="translate(0 -0.95)"/><path class="cls-5" d="M5.43,20.55a11.17,11.17,0,0,0,.22,1.82,12,12,0,0,0,.56,1.76,13.57,13.57,0,0,0,2.3,3.59,13.09,13.09,0,0,0,5.43,3.46L13.75,31a4.42,4.42,0,0,1-.93-.25l.35-.05-.2-.2c-.36-.23-.72-.46-1.08-.71l-1-.86a1.78,1.78,0,0,1-.8-.92.93.93,0,0,1-.13-.15,13.77,13.77,0,0,1-3-4.07,2.59,2.59,0,0,1-.37.11,8.4,8.4,0,0,1-.07-1.22,8.29,8.29,0,0,1-.36-1.32A8.12,8.12,0,0,1,6,19.91c-.25-.11-.58.46-.82.23l0-.09.06.56A1.29,1.29,0,0,1,5.43,20.55Z" transform="translate(0 -0.95)"/><path class="cls-4" d="M14.59,31.38l-.31-.28L14.11,31,13.75,31l.19.23A3.75,3.75,0,0,0,14.59,31.38Z" transform="translate(0 -0.95)"/><path class="cls-4" d="M5.32,13.92a19.3,19.3,0,0,0-1.8,4.52l0,.45,0,.78.26,1.71a3.18,3.18,0,0,1,1.44-.77l-.06-.56a.8.8,0,0,1,0-.47,13.92,13.92,0,0,1,.58-4.65.4.4,0,0,1,.13-.34L6,14.11C5.73,14.1,5.44,14.08,5.32,13.92Z" transform="translate(0 -0.95)"/><path class="cls-4" d="M23.08,1.05,23,1h-.08Z" transform="translate(0 -0.95)"/><path class="cls-6" d="M11.39,2.24A16,16,0,0,0,6.06,7.59,18.21,18.21,0,0,0,3.6,14.5a13.83,13.83,0,0,1,3.42-4l.2-.3,0,.16L7.56,10A1.91,1.91,0,0,0,7,9.6c.56-.14,1-1.15,1.53-.5a.19.19,0,0,1,.07.12,6.76,6.76,0,0,1,.54-.64c0-.57-.07-1.22.24-1.36l.16-.09a1.77,1.77,0,0,1,.6-.3h0C9.72,6.07,8.66,6.31,8.74,6a1.75,1.75,0,0,1,.6-.71,1,1,0,0,1,.66,0,2.37,2.37,0,0,1,1.14,1.09C12.53,4.73,14,3.09,15.87,1.19A18,18,0,0,0,11.39,2.24Z" transform="translate(0 -0.95)"/><path class="cls-7" d="M23,1l.06,0L22.94,1a43.51,43.51,0,0,0-5,.08c-.68,0-1.39,0-2.08.11C14,3.09,12.53,4.73,11.14,6.28l0,.08A42.67,42.67,0,0,1,15.5,4.93,14.38,14.38,0,0,1,17,4a2.92,2.92,0,0,1,1.61-.34,16.2,16.2,0,0,0,4.22.44c1.36,0,2.85-.23,4.95-.23a20.61,20.61,0,0,1,6,5.16,33.5,33.5,0,0,1,4.3,7,24.93,24.93,0,0,0-1.79-5.28A18.77,18.77,0,0,0,33,5.92a17,17,0,0,0-4.66-3.49A14.3,14.3,0,0,0,23,1Z" transform="translate(0 -0.95)"/><path class="cls-4" d="M8.62,9.35A4.8,4.8,0,0,1,9.16,9l0-.45a6.76,6.76,0,0,0-.54.64A.61.61,0,0,1,8.62,9.35Z" transform="translate(0 -0.95)"/><path class="cls-4" d="M6,18.64l0-.51c-.18-.11-.07-.33,0-.51a12.93,12.93,0,0,1,.09-1.36l-.13,0,.14-.11c0-.26.06-.51.07-.77a2.68,2.68,0,0,0-.36-.16.43.43,0,0,1-.14-.25,13.92,13.92,0,0,0-.58,4.65C5.21,19.19,5.66,19,6,18.64Z" transform="translate(0 -0.95)"/><path class="cls-4" d="M5.57,13.45a1.19,1.19,0,0,1,.75-.08l.07-.13c0-.36,0-.74,0-1.11C6.11,12.55,5.87,13,5.57,13.45Z" transform="translate(0 -0.95)"/><path class="cls-4" d="M8.59,9.7a5.79,5.79,0,0,0,.58-.38V9a4.8,4.8,0,0,0-.54.32A1.42,1.42,0,0,1,8.59,9.7Z" transform="translate(0 -0.95)"/><path class="cls-4" d="M5.43,20.55a1.29,1.29,0,0,0-.21.06,15.72,15.72,0,0,0,.35,1.79,17,17,0,0,0,.64,1.73,12,12,0,0,1-.56-1.76A11.17,11.17,0,0,1,5.43,20.55Z" transform="translate(0 -0.95)"/><path class="cls-5" d="M24.29,34.58a16.78,16.78,0,0,0,2.3-.77c-1.61-.28-3-.16-4.44-.3a7.46,7.46,0,0,1-3.82-1.1,2.65,2.65,0,0,0-.6.26.78.78,0,0,1,.51-.27l-.1,0a14.69,14.69,0,0,1-3-.5A12.22,12.22,0,0,0,24.29,34.58Z" transform="translate(0 -0.95)"/><path class="cls-8" d="M26.59,33.81c.19,0,.39,0,.59.08a8.1,8.1,0,0,1-1.43.43l-.72.17-.74.09a16.25,16.25,0,0,1-11.75-1.4A17.12,17.12,0,0,1,4.7,24.45a10,10,0,0,0,1.44,6.4,8.81,8.81,0,0,1-2.47-4,14.4,14.4,0,0,1-.5-4.54A4.78,4.78,0,0,0,3,23a16.62,16.62,0,0,0,.74,4.6,31.73,31.73,0,0,0,3.86,5.9A11.05,11.05,0,0,0,13,36.6a8.08,8.08,0,0,1,1.54.29,8.1,8.1,0,0,1,1.43.21c.65-.29,1.58,0,2.1,0a5.63,5.63,0,0,1,1.69,0,14.14,14.14,0,0,1,1.67.27l.32-.08a2.15,2.15,0,0,1,1.66.08c.59-.06,1.16-.24,1.75-.35l.38-.08c.51-.12,1-.29,1.52-.44.13-.21.35-.24.63-.2a25,25,0,0,0,12.05-9.08c1.25-1.75.82-4.74-.24-7.13a3.37,3.37,0,0,0-1.37-1.49,13.8,13.8,0,0,1-4.49,9.07,15.31,15.31,0,0,1-3,3.62A17,17,0,0,1,26.59,33.81Z" transform="translate(0 -0.95)"/><path class="cls-4" d="M4.29,29.24l-.23.09c.28.36.54.73.81,1.1C4.66,30,4.48,29.63,4.29,29.24Z" transform="translate(0 -0.95)"/><path class="cls-4" d="M15.14,31.87a14.69,14.69,0,0,0,3,.5,3.2,3.2,0,0,1-1.24-.54l-1.16-.17c-.39-.07-.76-.19-1.15-.28Z" transform="translate(0 -0.95)"/><path class="cls-9" d="M3,23a16.1,16.1,0,0,1,.13-2.21l.14-1.08.24-1,0-.45a9.29,9.29,0,0,0-1.24,6.87A14.83,14.83,0,0,1,3.6,14.5,18.21,18.21,0,0,1,6.06,7.59a16,16,0,0,1,5.33-5.35,17.83,17.83,0,0,0-9.9,9.39,1.17,1.17,0,0,0,.6.89A8,8,0,0,0,.33,18.89a65.91,65.91,0,0,0,1.38,6.82c-.16.26-.3-.15-.44-.28A16.44,16.44,0,0,0,2,27a14.06,14.06,0,0,0,1.15,1,6.52,6.52,0,0,1,1.08,1.14,14.77,14.77,0,0,1-.53-1.45A10.9,10.9,0,0,1,3,25.22,7,7,0,0,1,3,23Z" transform="translate(0 -0.95)"/><path class="cls-4" d="M2.19,25.12a9.29,9.29,0,0,1,1.24-6.87c0-.63,0-1.25,0-1.88s.1-1.25.18-1.87A14.83,14.83,0,0,0,2.19,25.12Z" transform="translate(0 -0.95)"/><path class="cls-4" d="M3.69,27.63a14.77,14.77,0,0,0,.53,1.45l.11.14,0,0c.19.39.37.8.58,1.19.44.52.83,1.08,1.28,1.6s.89,1,1.4,1.5A31.73,31.73,0,0,1,3.69,27.63Z" transform="translate(0 -0.95)"/><path class="cls-4" d="M20.83,32a4.05,4.05,0,0,0,.77.16,13.37,13.37,0,0,0,1.45-.37h0a10,10,0,0,1-1.1.14A6.58,6.58,0,0,1,20.83,32Z" transform="translate(0 -0.95)"/><path class="cls-10" d="M33.61,27.64a15,15,0,0,0,1.78-4.73A14.43,14.43,0,0,0,35.33,18a2.44,2.44,0,0,0-1.35.44c-1.13.35-1.16.92-1,1.7.24.05.11-.88.44-.31a1.52,1.52,0,0,1,.3,1.85l-.18.29,0,.16c.2.11.36.22.06.28A3.7,3.7,0,0,1,32.87,24c-.43.65-1,1.2-1.1,1.39l.29-.21a6.62,6.62,0,0,0,.63-.48l.87-.79v.42l-.15-.11-.18.37c.22.28.57.52.51.84l.33-.39c.3.56-.28,1.14-.66,1.5-.4-.4,0-.75.14-.93l-.18.18c.2-.17.32-.73-.07-.73s-.33.39-.4.67a.4.4,0,0,1-.07.18s0,0,0,0,0,0,0,0a.75.75,0,0,0,.07-.18.27.27,0,0,0-.14-.27l-.38.59a1.54,1.54,0,0,1,0,.17,1.09,1.09,0,0,1,.19-.1l-.18.17v-.07c-.44.31,0,.83-.2,1.32,0-.35-.5-.28-.56-.58l-.1.13a1.1,1.1,0,0,1-.35.7c-.07.38-.07.83-.12,1.22a.71.71,0,0,1-.29-.87,4.2,4.2,0,0,1-.72.41c.12.39.32.56-.12,1.06-.12-.21-.31-.44-.41-.66a8.63,8.63,0,0,1-1.17.8,2.44,2.44,0,0,0-.14.28s.11.27-.11.34a3.38,3.38,0,0,1,.11-.34h0a3.09,3.09,0,0,1-.65.16c-.36.17-.69.37-1.06.51l-1.09.42a.2.2,0,0,0,.09.09l.1,0a.12.12,0,0,1-.1,0c-.4-.08-.31.61-.8.39l.24,0a1,1,0,0,0-.81.16,7.42,7.42,0,0,0-.64.46l.74,0,.72-.13.72-.14c.24-.07.47-.16.7-.24A18.91,18.91,0,0,0,33.61,27.64Z" transform="translate(0 -0.95)"/><path class="cls-4" d="M23.1,32.26l.25-.32-.3-.18a13.37,13.37,0,0,1-1.45.37A12.47,12.47,0,0,0,23.1,32.26Z" transform="translate(0 -0.95)"/><path class="cls-11" d="M18.32,32.39h0l0,0h0a.54.54,0,0,1,.22,0,.81.81,0,0,1-.22,0h0a7.46,7.46,0,0,0,3.82,1.1c1.42.14,2.83,0,4.44.3a17,17,0,0,0,4-2.55,15.31,15.31,0,0,0,3-3.62,18.91,18.91,0,0,1-7.2,4.07c-.23.08-.46.17-.7.24l-.72.14-.72.13-.74,0a1,1,0,0,1-.63.26l.2-.24a12.47,12.47,0,0,1-1.5-.13c-.53.13-1.08.14-1.62.22S18.88,32.38,18.32,32.39Z" transform="translate(0 -0.95)"/><path class="cls-12" d="M38.1,18.57A4.78,4.78,0,0,0,35.33,18a14.43,14.43,0,0,1,.06,4.91,15,15,0,0,1-1.78,4.73A13.8,13.8,0,0,0,38.1,18.57Z" transform="translate(0 -0.95)"/><path class="cls-13" d="M3.55,18.05l0,.39a19.3,19.3,0,0,1,1.8-4.52l0-.05a.55.55,0,0,1,.29-.42c.3-.44.54-.9.83-1.32v-.3a1.57,1.57,0,0,1,.24-.59A2.56,2.56,0,0,1,7,10.46a13.83,13.83,0,0,0-3.42,4c-.08.62-.12,1.25-.18,1.87s0,1.25,0,1.88Z" transform="translate(0 -0.95)"/><polygon class="cls-4" points="3.47 17.94 3.52 17.49 3.46 17.75 3.47 17.94"/><path class="cls-4" d="M6.14,30.85a10,10,0,0,1-1.44-6.4l-.53-1.51-.39-1.56a2.82,2.82,0,0,0-.61.95,14.4,14.4,0,0,0,.5,4.54A8.81,8.81,0,0,0,6.14,30.85Z" transform="translate(0 -0.95)"/><path class="cls-12" d="M4.79,22c.17.67.46,1.31.65,2s.46,1.37.8,2A15.76,15.76,0,0,0,8.56,30a10.58,10.58,0,0,0,3.52,2.86,7.21,7.21,0,0,0,2.07.65,5.28,5.28,0,0,0,2.06,0c-.32-.32-.64-.62-1-.92l-.93-1a14,14,0,0,1-5.81-3.9,11.53,11.53,0,0,1-2.3-3.59,17,17,0,0,1-.64-1.73,15.72,15.72,0,0,1-.35-1.79,3.18,3.18,0,0,0-1.44.77l.39,1.56.53,1.51C4.78,23.61,4.75,22.84,4.79,22Z" transform="translate(0 -0.95)"/><path class="cls-14" d="M13.94,31.18a13.09,13.09,0,0,1-5.43-3.46,14,14,0,0,0,5.81,3.9A5.46,5.46,0,0,1,13.94,31.18Z" transform="translate(0 -0.95)"/><path class="cls-4" d="M16.9,31.83h0l-1.32-.29-1.3-.44.31.28c.39.09.76.21,1.15.28Z" transform="translate(0 -0.95)"/><path class="cls-15" d="M3.69,27.63A16.62,16.62,0,0,1,3,23a7,7,0,0,0,0,2.19A10.9,10.9,0,0,0,3.69,27.63Z" transform="translate(0 -0.95)"/><path class="cls-4" d="M15.14,31.87l-.55-.49a3.75,3.75,0,0,1-.65-.2,5.46,5.46,0,0,0,.38.44Z" transform="translate(0 -0.95)"/><path class="cls-4" d="M7.2,10.63l.51-.38A1.37,1.37,0,0,0,7.56,10l-.37.28A.79.79,0,0,0,7.2,10.63Z" transform="translate(0 -0.95)"/><polygon class="cls-4" points="3.43 17.3 3.46 17.75 3.52 17.49 3.55 17.1 3.43 17.3"/><path class="cls-4" d="M3,23a4.78,4.78,0,0,1,.22-.7l0-.87.09-.87.07-.85.11-.85V18.7l-.24,1-.14,1.08A16.1,16.1,0,0,0,3,23Z" transform="translate(0 -0.95)"/><path class="cls-14" d="M3.17,22.33a2.82,2.82,0,0,1,.61-.95l-.26-1.71,0-.78-.11.85-.07.85-.09.87Z" transform="translate(0 -0.95)"/><path class="cls-4" d="M16.21,33.51a5.28,5.28,0,0,1-2.06,0,7.21,7.21,0,0,1-2.07-.65A10.58,10.58,0,0,1,8.56,30a15.76,15.76,0,0,1-2.32-3.94c-.34-.66-.52-1.38-.8-2S5,22.71,4.79,22c0,.8,0,1.57-.09,2.41a17.12,17.12,0,0,0,7.84,8.73,16.25,16.25,0,0,0,11.75,1.4,12.22,12.22,0,0,1-9.15-2.71l-.82-.25.93,1C15.57,32.89,15.89,33.19,16.21,33.51Z" transform="translate(0 -0.95)"/></g></g><text class="cls-16" transform="translate(12.16 25.85)">2</text></g></g></svg>