<svg xmlns="http://www.w3.org/2000/svg" viewBox="0 0 37.54 46.91"><defs><style>.cls-1{fill:#ba7432;}.cls-2{fill:#7d4e23;}.cls-3{fill:#c39165;}.cls-4,.cls-5{fill:#6e4a21;}.cls-5{font-size:16px;font-family:MyriadPro-Regular, Myriad Pro;}</style></defs><title>rank3</title><g id="Layer_2" data-name="Layer 2"><g id="Layer_1-2" data-name="Layer 1"><path class="cls-1" d="M36.09,21.54a20.36,20.36,0,0,0,.24-2.81h-.12A20.06,20.06,0,0,1,36,21.52Z"/><path class="cls-2" d="M37.54,18.84a1.44,1.44,0,0,0-1.33,1.25,1,1,0,0,0,.9-.34A1.25,1.25,0,0,0,37.54,18.84Z"/><path class="cls-3" d="M35,18.83a1.23,1.23,0,0,1,1.2,1.26,1.16,1.16,0,0,1-.85-.43A1,1,0,0,1,35,18.83Z"/><path class="cls-2" d="M34.93,20.11a1.1,1.1,0,0,1,.85.45,1,1,0,0,1,.25.9h0a1.2,1.2,0,0,1-.81-.5A1.19,1.19,0,0,1,34.93,20.11Z"/><path class="cls-3" d="M37.47,20.31a1.13,1.13,0,0,0-.9.33,1.17,1.17,0,0,0-.52.82h0a1.06,1.06,0,0,0,.93-.27A1.08,1.08,0,0,0,37.47,20.31Z"/><path class="cls-1" d="M35.45,24.22a17.32,17.32,0,0,0,.65-2.74l-.12,0a15.79,15.79,0,0,1-.63,2.72Z"/><path class="cls-2" d="M37.28,21.77a1.11,1.11,0,0,0-.92.25,1.23,1.23,0,0,0-.56.78,1.05,1.05,0,0,0,1-.19A1.12,1.12,0,0,0,37.28,21.77Z"/><path class="cls-3" d="M34.77,21.37a1.09,1.09,0,0,1,.8.51.92.92,0,0,1,.2.92,1.13,1.13,0,0,1-.75-.56A1.06,1.06,0,0,1,34.77,21.37Z"/><path class="cls-2" d="M34.52,22.62a1.07,1.07,0,0,1,.75.57,1,1,0,0,1,.15.94h0a1.21,1.21,0,0,1-.73-.62A1,1,0,0,1,34.52,22.62Z"/><path class="cls-3" d="M37,23.22a1.11,1.11,0,0,0-.94.18,1.18,1.18,0,0,0-.61.73h0a1,1,0,0,0,1-.12A1.19,1.19,0,0,0,37,23.22Z"/><path class="cls-1" d="M34.39,26.76c.2-.43.42-.85.6-1.28l.49-1.32-.11,0-.48,1.32c-.18.43-.4.84-.6,1.26Z"/><path class="cls-2" d="M36.6,24.63a1.2,1.2,0,0,0-1,.1,1.17,1.17,0,0,0-.67.69,1,1,0,0,0,.95-.05A1.25,1.25,0,0,0,36.6,24.63Z"/><path class="cls-3" d="M34.18,23.84a1.07,1.07,0,0,1,.7.63,1.06,1.06,0,0,1,.06.94c-.19,0-.49-.29-.68-.67A1,1,0,0,1,34.18,23.84Z"/><path class="cls-2" d="M33.74,25a1.24,1.24,0,0,1,.62,1.62h0a1.2,1.2,0,0,1-.62-.73A1,1,0,0,1,33.74,25Z"/><path class="cls-3" d="M36.09,26a1.19,1.19,0,0,0-1,0,1.15,1.15,0,0,0-.74.63h0a1.05,1.05,0,0,0,1,0A1.19,1.19,0,0,0,36.09,26Z"/><path class="cls-1" d="M33,29.1a11.33,11.33,0,0,0,.78-1.17,12.43,12.43,0,0,0,.69-1.23l-.1-.05a11.24,11.24,0,0,1-.69,1.22A8.12,8.12,0,0,1,32.85,29Z"/><path class="cls-2" d="M35.46,27.35a1.09,1.09,0,0,0-1,0,1.13,1.13,0,0,0-.8.56,1.31,1.31,0,0,0,1.75-.52Z"/><path class="cls-3" d="M33.19,26.18a1.13,1.13,0,0,1,.61.74,1,1,0,0,1-.11.93,1.16,1.16,0,0,1-.55-.77A1.21,1.21,0,0,1,33.19,26.18Z"/><path class="cls-2" d="M32.56,27.29a1.11,1.11,0,0,1,.54.78.93.93,0,0,1-.17.93h0a1.17,1.17,0,0,1-.48-.81A1.1,1.1,0,0,1,32.56,27.29Z"/><path class="cls-3" d="M34.72,28.63a1.11,1.11,0,0,0-.94-.12A1.28,1.28,0,0,0,33,29h0a1.07,1.07,0,0,0,.95.19A1.08,1.08,0,0,0,34.72,28.63Z"/><path class="cls-1" d="M31.17,31.2A19.43,19.43,0,0,0,33,29.05L32.89,29a20.38,20.38,0,0,1-1.8,2.14Z"/><path class="cls-2" d="M33.9,29.85a1.11,1.11,0,0,0-.94-.2,1.26,1.26,0,0,0-.85.45,1.08,1.08,0,0,0,.93.25A1.17,1.17,0,0,0,33.9,29.85Z"/><path class="cls-3" d="M31.85,28.34a1.14,1.14,0,0,1,.48.82,1,1,0,0,1-.23.92,1.13,1.13,0,0,1-.43-.84A1.06,1.06,0,0,1,31.85,28.34Z"/><path class="cls-2" d="M31.06,29.35a1.07,1.07,0,0,1,.41.85,1.08,1.08,0,0,1-.3.9h0a1.22,1.22,0,0,1-.37-.89A1,1,0,0,1,31.06,29.35Z"/><path class="cls-3" d="M33,31a1.16,1.16,0,0,0-.93-.28,1.06,1.06,0,0,0-.87.39h0a1,1,0,0,0,.89.31A1.24,1.24,0,0,0,33,31Z"/><path class="cls-1" d="M29.06,33a18.64,18.64,0,0,0,2.15-1.82l-.08-.07A20.27,20.27,0,0,1,29,32.88Z"/><path class="cls-2" d="M32,32.09a1.19,1.19,0,0,0-.91-.35,1.15,1.15,0,0,0-.92.3,1.06,1.06,0,0,0,.88.39A1.26,1.26,0,0,0,32,32.09Z"/><path class="cls-3" d="M30.2,30.28a1.08,1.08,0,0,1,.34.88,1,1,0,0,1-.38.86,1.18,1.18,0,0,1-.3-.91A1,1,0,0,1,30.2,30.28Z"/><path class="cls-2" d="M29.26,31.14a1.1,1.1,0,0,1,.27.91,1.06,1.06,0,0,1-.45.83h0a1.14,1.14,0,0,1-.22-.93A1.1,1.1,0,0,1,29.26,31.14Z"/><path class="cls-3" d="M30.9,33.08a1.12,1.12,0,0,0-.86-.41,1.15,1.15,0,0,0-.95.22h0a1.05,1.05,0,0,0,.84.46A1.08,1.08,0,0,0,30.9,33.08Z"/><path class="cls-1" d="M26.72,34.41a11.24,11.24,0,0,0,1.22-.69,10.34,10.34,0,0,0,1.17-.78l-.07-.1a7.59,7.59,0,0,1-1.16.78,9.79,9.79,0,0,1-1.22.69Z"/><path class="cls-2" d="M29.74,34a1.11,1.11,0,0,0-.83-.47,1.21,1.21,0,0,0-.95.15,1.27,1.27,0,0,0,1.78.32Z"/><path class="cls-3" d="M28.25,31.92a1.14,1.14,0,0,1,.21.93,1,1,0,0,1-.52.79,1.16,1.16,0,0,1-.14-.93A1.18,1.18,0,0,1,28.25,31.92Z"/><path class="cls-2" d="M27.19,32.62a1.16,1.16,0,0,1,.13,1c-.1.43-.36.72-.57.75h0a1.16,1.16,0,0,1-.07-.94A1.08,1.08,0,0,1,27.19,32.62Z"/><path class="cls-3" d="M28.51,34.8a1.09,1.09,0,0,0-.79-.54,1.29,1.29,0,0,0-1,.08h0a1.12,1.12,0,0,0,.77.6A1.21,1.21,0,0,0,28.51,34.8Z"/><path class="cls-1" d="M24.17,35.47,25.5,35c.43-.18.85-.4,1.27-.6l-.05-.1c-.42.2-.84.42-1.27.6l-1.31.48Z"/><path class="cls-2" d="M27.23,35.51a1.15,1.15,0,0,0-.75-.6,1.13,1.13,0,0,0-1,0,1,1,0,0,0,.71.63A1.17,1.17,0,0,0,27.23,35.51Z"/><path class="cls-3" d="M26.08,33.24a1.08,1.08,0,0,1,.05.95c-.14.4-.41.69-.62.72a1.19,1.19,0,0,1,0-1A1.06,1.06,0,0,1,26.08,33.24Z"/><path class="cls-2" d="M24.92,33.78a1.24,1.24,0,0,1-.7,1.6h0a1.18,1.18,0,0,1,.07-1A1,1,0,0,1,24.92,33.78Z"/><path class="cls-3" d="M25.89,36.14a1.17,1.17,0,0,0-.7-.67,1.14,1.14,0,0,0-1-.07h0a1,1,0,0,0,.65.69A1.24,1.24,0,0,0,25.89,36.14Z"/><path class="cls-1" d="M21.49,36.09a17,17,0,0,0,2.74-.64l0-.11a17.31,17.31,0,0,1-2.72.64Z"/><path class="cls-2" d="M24.51,36.64c0-.21-.25-.49-.65-.71a1.11,1.11,0,0,0-.95-.16,1,1,0,0,0,.6.75A1.14,1.14,0,0,0,24.51,36.64Z"/><path class="cls-3" d="M23.73,34.22a1.06,1.06,0,0,1-.1.94,1,1,0,0,1-.73.59,1.19,1.19,0,0,1,.15-.94A1.08,1.08,0,0,1,23.73,34.22Z"/><path class="cls-2" d="M22.5,34.55a1.14,1.14,0,0,1-.17.94,1,1,0,0,1-.78.53h0a1.16,1.16,0,0,1,.23-.92A1.14,1.14,0,0,1,22.5,34.55Z"/><path class="cls-3" d="M23.08,37a1.07,1.07,0,0,0-.58-.75,1.16,1.16,0,0,0-.94-.24h0a1.06,1.06,0,0,0,.54.8A1.07,1.07,0,0,0,23.08,37Z"/><path class="cls-1" d="M18.75,36.32a17.44,17.44,0,0,0,2.8-.24V36a20.07,20.07,0,0,1-2.79.24Z"/><path class="cls-2" d="M21.64,37.3a1.13,1.13,0,0,0-.53-.8,1.28,1.28,0,0,0-.91-.29,1.12,1.12,0,0,0,.47.85A1.16,1.16,0,0,0,21.64,37.3Z"/><path class="cls-3" d="M21.25,34.79a1.1,1.1,0,0,1-.24.92.94.94,0,0,1-.81.48,1.08,1.08,0,0,1,.29-.89A1,1,0,0,1,21.25,34.79Z"/><path class="cls-2" d="M20,34.93a1,1,0,0,1-.31.89,1.08,1.08,0,0,1-.85.44h0a1.2,1.2,0,0,1,.37-.9A1,1,0,0,1,20,34.93Z"/><path class="cls-3" d="M20.17,37.47a1.17,1.17,0,0,0-.46-.85,1.09,1.09,0,0,0-.89-.34h0a1,1,0,0,0,.41.85A1.19,1.19,0,0,0,20.17,37.47Z"/><path class="cls-1" d="M16,36.09a18.66,18.66,0,0,0,2.8.23v-.11A20.06,20.06,0,0,1,16,36Z"/><path class="cls-2" d="M18.71,37.54a1.19,1.19,0,0,0-.4-.89,1.12,1.12,0,0,0-.86-.44,1.08,1.08,0,0,0,.34.9A1.27,1.27,0,0,0,18.71,37.54Z"/><path class="cls-3" d="M18.71,35a1.23,1.23,0,0,1-1.26,1.2,1.18,1.18,0,0,1,.44-.85A1,1,0,0,1,18.71,35Z"/><path class="cls-2" d="M17.44,34.93a1.17,1.17,0,0,1-.45.85,1,1,0,0,1-.9.25h0a1.37,1.37,0,0,1,1.35-1.1Z"/><path class="cls-3" d="M17.23,37.47a1.12,1.12,0,0,0-.32-.9,1.19,1.19,0,0,0-.83-.52h0a1.3,1.3,0,0,0,1.15,1.42Z"/><path class="cls-1" d="M13.33,35.45a17.06,17.06,0,0,0,2.74.65l0-.12a16.12,16.12,0,0,1-2.73-.63Z"/><path class="cls-2" d="M15.77,37.28a1.08,1.08,0,0,0-.25-.92,1.23,1.23,0,0,0-.78-.56,1.09,1.09,0,0,0,.19,1A1.12,1.12,0,0,0,15.77,37.28Z"/><path class="cls-3" d="M16.18,34.77a1.11,1.11,0,0,1-.52.8.91.91,0,0,1-.92.2A1.13,1.13,0,0,1,15.3,35,1.08,1.08,0,0,1,16.18,34.77Z"/><path class="cls-2" d="M14.93,34.52a1.09,1.09,0,0,1-.58.75,1,1,0,0,1-.93.15h0a1.15,1.15,0,0,1,.62-.73A1,1,0,0,1,14.93,34.52Z"/><path class="cls-3" d="M14.33,37a1.15,1.15,0,0,0-.18-.94,1.19,1.19,0,0,0-.74-.61h0a1,1,0,0,0,.12,1A1.2,1.2,0,0,0,14.33,37Z"/><path class="cls-1" d="M10.79,34.39c.42.2.84.42,1.27.6l1.33.49,0-.11-1.31-.48c-.43-.18-.85-.4-1.27-.6Z"/><path class="cls-2" d="M12.91,36.6a1.16,1.16,0,0,0-.1-1,1.12,1.12,0,0,0-.69-.67,1,1,0,0,0,.05.95A1.28,1.28,0,0,0,12.91,36.6Z"/><path class="cls-3" d="M13.71,34.18a1.13,1.13,0,0,1-.63.7,1.08,1.08,0,0,1-.95.06,1.21,1.21,0,0,1,.68-.68A1,1,0,0,1,13.71,34.18Z"/><path class="cls-2" d="M12.51,33.74a1.05,1.05,0,0,1-.68.64,1,1,0,0,1-.95,0h0a1.23,1.23,0,0,1,.73-.62A1,1,0,0,1,12.51,33.74Z"/><path class="cls-3" d="M11.52,36.09a1.15,1.15,0,0,0,0-1,1.12,1.12,0,0,0-.63-.74h0a1.06,1.06,0,0,0,0,1A1.18,1.18,0,0,0,11.52,36.09Z"/><path class="cls-1" d="M8.45,33a9.52,9.52,0,0,0,1.17.78,11.24,11.24,0,0,0,1.22.69l.06-.1a11.24,11.24,0,0,1-1.22-.69,8.21,8.21,0,0,1-1.17-.78Z"/><path class="cls-2" d="M10.2,35.46a1.13,1.13,0,0,0,0-1,1.19,1.19,0,0,0-.56-.8,1.29,1.29,0,0,0,.52,1.75Z"/><path class="cls-3" d="M11.36,33.19a1.1,1.1,0,0,1-.74.61,1,1,0,0,1-.93-.11,1.16,1.16,0,0,1,.77-.55A1.21,1.21,0,0,1,11.36,33.19Z"/><path class="cls-2" d="M10.25,32.56a1.09,1.09,0,0,1-.78.54.93.93,0,0,1-.93-.17h0a1.17,1.17,0,0,1,.81-.48A1.09,1.09,0,0,1,10.25,32.56Z"/><path class="cls-3" d="M8.91,34.72A1.07,1.07,0,0,0,9,33.78a1.28,1.28,0,0,0-.5-.83h0a1.07,1.07,0,0,0-.18.95A1.1,1.1,0,0,0,8.91,34.72Z"/><path class="cls-1" d="M6.35,31.17A17.75,17.75,0,0,0,8.5,33l.06-.09a20.38,20.38,0,0,1-2.14-1.8Z"/><path class="cls-2" d="M7.7,33.9A1.12,1.12,0,0,0,7.89,33a1.25,1.25,0,0,0-.44-.85,1.05,1.05,0,0,0-.26.93A1.17,1.17,0,0,0,7.7,33.9Z"/><path class="cls-3" d="M9.2,31.85a1.14,1.14,0,0,1-.82.48,1,1,0,0,1-.92-.23,1.16,1.16,0,0,1,.85-.43A1,1,0,0,1,9.2,31.85Z"/><path class="cls-2" d="M8.2,31.06a1.09,1.09,0,0,1-.85.41,1.11,1.11,0,0,1-.91-.3h0a1.24,1.24,0,0,1,.89-.37A1,1,0,0,1,8.2,31.06Z"/><path class="cls-3" d="M6.54,33a1.16,1.16,0,0,0,.27-.93,1.06,1.06,0,0,0-.38-.87h0a1,1,0,0,0-.32.89A1.2,1.2,0,0,0,6.54,33Z"/><path class="cls-1" d="M4.57,29.06a19.69,19.69,0,0,0,1.82,2.15l.08-.08A20.37,20.37,0,0,1,4.66,29Z"/><path class="cls-2" d="M5.45,32a1.19,1.19,0,0,0,.36-.91,1.15,1.15,0,0,0-.31-.92,1.09,1.09,0,0,0-.39.88A1.26,1.26,0,0,0,5.45,32Z"/><path class="cls-3" d="M7.26,30.2a1.06,1.06,0,0,1-.87.34,1,1,0,0,1-.87-.38,1.18,1.18,0,0,1,.91-.3A1,1,0,0,1,7.26,30.2Z"/><path class="cls-2" d="M6.4,29.26a1.1,1.1,0,0,1-.91.27,1,1,0,0,1-.82-.45h0a1.11,1.11,0,0,1,.92-.22A1.08,1.08,0,0,1,6.4,29.26Z"/><path class="cls-3" d="M4.46,30.9A1.12,1.12,0,0,0,4.87,30a1.15,1.15,0,0,0-.22-.95h0a1.05,1.05,0,0,0-.46.84A1.11,1.11,0,0,0,4.46,30.9Z"/><path class="cls-1" d="M3.13,26.72a11.32,11.32,0,0,0,.7,1.22,8.21,8.21,0,0,0,.78,1.17L4.7,29a8.4,8.4,0,0,1-.78-1.16,11.24,11.24,0,0,1-.69-1.22Z"/><path class="cls-2" d="M3.56,29.74A1.11,1.11,0,0,0,4,28.91,1.18,1.18,0,0,0,3.89,28a1.28,1.28,0,0,0-.33,1.78Z"/><path class="cls-3" d="M5.63,28.25a1.16,1.16,0,0,1-.94.21,1,1,0,0,1-.79-.52,1.19,1.19,0,0,1,.94-.14A1.21,1.21,0,0,1,5.63,28.25Z"/><path class="cls-2" d="M4.92,27.19a1.15,1.15,0,0,1-.94.13,1,1,0,0,1-.76-.57h0a1.17,1.17,0,0,1,.94-.07A1.08,1.08,0,0,1,4.92,27.19Z"/><path class="cls-3" d="M2.75,28.51a1.14,1.14,0,0,0,.54-.79,1.28,1.28,0,0,0-.09-1h0a1.11,1.11,0,0,0-.59.77A1.14,1.14,0,0,0,2.75,28.51Z"/><path class="cls-1" d="M2.07,24.17l.49,1.33c.18.43.4.85.6,1.27l.1-.05c-.2-.42-.41-.84-.6-1.27l-.48-1.31Z"/><path class="cls-2" d="M2,27.23a1.15,1.15,0,0,0,.61-.75,1.17,1.17,0,0,0,0-1,1,1,0,0,0-.64.71A1.2,1.2,0,0,0,2,27.23Z"/><path class="cls-3" d="M4.3,26.08a1.06,1.06,0,0,1-.94.05c-.41-.14-.7-.41-.72-.62a1.19,1.19,0,0,1,1,0A1,1,0,0,1,4.3,26.08Z"/><path class="cls-2" d="M3.76,24.92a1,1,0,0,1-.93,0,1.06,1.06,0,0,1-.67-.68h0a1.18,1.18,0,0,1,1,.07A1,1,0,0,1,3.76,24.92Z"/><path class="cls-3" d="M1.41,25.89a1.17,1.17,0,0,0,.67-.7,1.1,1.1,0,0,0,.06-1h0a1,1,0,0,0-.69.65A1.23,1.23,0,0,0,1.41,25.89Z"/><path class="cls-1" d="M1.45,21.49a16.06,16.06,0,0,0,.65,2.74l.1,0a17.31,17.31,0,0,1-.64-2.72Z"/><path class="cls-2" d="M.9,24.51c.21,0,.49-.25.72-.65a1.15,1.15,0,0,0,.16-.95,1,1,0,0,0-.75.6A1.15,1.15,0,0,0,.9,24.51Z"/><path class="cls-3" d="M3.33,23.73a1.06,1.06,0,0,1-.94-.1,1,1,0,0,1-.59-.73,1.2,1.2,0,0,1,.94.15A1.11,1.11,0,0,1,3.33,23.73Z"/><path class="cls-2" d="M3,22.5a1.16,1.16,0,0,1-1-.17,1,1,0,0,1-.52-.78h0a1.17,1.17,0,0,1,.92.23A1.22,1.22,0,0,1,3,22.5Z"/><path class="cls-3" d="M.52,23.08a1.1,1.1,0,0,0,.75-.58,1.25,1.25,0,0,0,.24-.94h0a1,1,0,0,0-.8.54A1,1,0,0,0,.52,23.08Z"/><path class="cls-1" d="M1.22,18.75a20.08,20.08,0,0,0,.24,2.8h.11a20.07,20.07,0,0,1-.24-2.79Z"/><path class="cls-2" d="M.24,21.64a1.11,1.11,0,0,0,.8-.53,1.3,1.3,0,0,0,.3-.91,1.1,1.1,0,0,0-.85.47A1.21,1.21,0,0,0,.24,21.64Z"/><path class="cls-3" d="M2.76,21.25A1.1,1.1,0,0,1,1.84,21a.94.94,0,0,1-.48-.81,1.1,1.1,0,0,1,.89.29A1.1,1.1,0,0,1,2.76,21.25Z"/><path class="cls-2" d="M2.61,20a1,1,0,0,1-.89-.31,1.09,1.09,0,0,1-.43-.85h0a1.18,1.18,0,0,1,.89.37A1,1,0,0,1,2.61,20Z"/><path class="cls-3" d="M.07,20.17a1.15,1.15,0,0,0,.85-.46,1.11,1.11,0,0,0,.35-.89h0a1,1,0,0,0-.86.41A1.23,1.23,0,0,0,.07,20.17Z"/><path class="cls-1" d="M1.46,16a20.08,20.08,0,0,0-.24,2.8h.11A20.07,20.07,0,0,1,1.57,16Z"/><path class="cls-2" d="M0,18.71a1.22,1.22,0,0,0,.9-.4,1.14,1.14,0,0,0,.43-.86,1.06,1.06,0,0,0-.89.34A1.25,1.25,0,0,0,0,18.71Z"/><path class="cls-3" d="M2.55,18.71a1,1,0,0,1-.85-.38,1,1,0,0,1-.35-.88,1.18,1.18,0,0,1,.85.44A1,1,0,0,1,2.55,18.71Z"/><path class="cls-2" d="M2.62,17.44A1.17,1.17,0,0,1,1.77,17a1,1,0,0,1-.26-.9h0a1.15,1.15,0,0,1,.81.5A1.2,1.2,0,0,1,2.62,17.44Z"/><path class="cls-3" d="M.08,17.23A1.1,1.1,0,0,0,1,16.91a1.15,1.15,0,0,0,.52-.83h0a1.07,1.07,0,0,0-.92.27A1.07,1.07,0,0,0,.08,17.23Z"/><path class="cls-1" d="M2.09,13.33a17,17,0,0,0-.64,2.74l.11,0a17.17,17.17,0,0,1,.64-2.73Z"/><path class="cls-2" d="M.26,15.77a1.08,1.08,0,0,0,.92-.25,1.3,1.3,0,0,0,.57-.78,1.08,1.08,0,0,0-.95.19A1.14,1.14,0,0,0,.26,15.77Z"/><path class="cls-3" d="M2.78,16.18A1.1,1.1,0,0,1,2,15.66a.94.94,0,0,1-.2-.92,1.14,1.14,0,0,1,.76.56A1.16,1.16,0,0,1,2.78,16.18Z"/><path class="cls-2" d="M3,14.93a1.1,1.1,0,0,1-.76-.58c-.21-.37-.27-.77-.14-.93h0c.21,0,.49.24.72.62A1,1,0,0,1,3,14.93Z"/><path class="cls-3" d="M.55,14.33a1.17,1.17,0,0,0,1-.18,1.23,1.23,0,0,0,.61-.74h0a1,1,0,0,0-.95.12A1.19,1.19,0,0,0,.55,14.33Z"/><path class="cls-1" d="M3.15,10.79c-.2.42-.42.84-.6,1.27l-.48,1.33.11,0,.48-1.31c.18-.43.4-.85.59-1.27Z"/><path class="cls-2" d="M1,12.91a1.14,1.14,0,0,0,1-.1,1.09,1.09,0,0,0,.67-.69,1,1,0,0,0-1,.05A1.22,1.22,0,0,0,1,12.91Z"/><path class="cls-3" d="M3.37,13.71a1.1,1.1,0,0,1-.7-.63,1.05,1.05,0,0,1-.07-.95,1.19,1.19,0,0,1,.68.68A1,1,0,0,1,3.37,13.71Z"/><path class="cls-2" d="M3.8,12.51a1.07,1.07,0,0,1-.64-.68,1.08,1.08,0,0,1,0-.95h0a1.17,1.17,0,0,1,.62.73A1,1,0,0,1,3.8,12.51Z"/><path class="cls-3" d="M1.46,11.52a1.15,1.15,0,0,0,1,0,1.1,1.1,0,0,0,.73-.63h0a1,1,0,0,0-1,0A1.18,1.18,0,0,0,1.46,11.52Z"/><path class="cls-1" d="M4.6,8.45a7.68,7.68,0,0,0-.78,1.17,9.79,9.79,0,0,0-.69,1.22l.1.06a9.72,9.72,0,0,1,.68-1.22,10.34,10.34,0,0,1,.78-1.17Z"/><path class="cls-2" d="M2.09,10.2a1.13,1.13,0,0,0,1,0,1.19,1.19,0,0,0,.79-.56,1.08,1.08,0,0,0-1-.11A1,1,0,0,0,2.09,10.2Z"/><path class="cls-3" d="M4.35,11.36a1.13,1.13,0,0,1-.61-.74,1,1,0,0,1,.11-.93,1.13,1.13,0,0,1,.55.77A1.16,1.16,0,0,1,4.35,11.36Z"/><path class="cls-2" d="M5,10.25a1.09,1.09,0,0,1-.54-.78.93.93,0,0,1,.17-.93h0a1.14,1.14,0,0,1,.49.81A1.12,1.12,0,0,1,5,10.25Z"/><path class="cls-3" d="M2.82,8.91a1.1,1.1,0,0,0,1,.12,1.26,1.26,0,0,0,.82-.5h0a1.07,1.07,0,0,0-.95-.18A1.12,1.12,0,0,0,2.82,8.91Z"/><path class="cls-1" d="M6.38,6.35A18.79,18.79,0,0,0,4.56,8.5l.09.06A18.35,18.35,0,0,1,6.46,6.43Z"/><path class="cls-2" d="M3.64,7.7a1.13,1.13,0,0,0,.94.19,1.21,1.21,0,0,0,.85-.44,1.05,1.05,0,0,0-.93-.26A1.19,1.19,0,0,0,3.64,7.7Z"/><path class="cls-3" d="M5.69,9.2a1.11,1.11,0,0,1-.47-.82,1,1,0,0,1,.23-.92,1.23,1.23,0,0,1,.43.85A1,1,0,0,1,5.69,9.2Z"/><path class="cls-2" d="M6.48,8.2a1.11,1.11,0,0,1-.4-.85,1.08,1.08,0,0,1,.29-.91h0a1.2,1.2,0,0,1,.38.89A1,1,0,0,1,6.48,8.2Z"/><path class="cls-3" d="M4.55,6.54a1.17,1.17,0,0,0,.93.27,1.09,1.09,0,0,0,.88-.38h0a1,1,0,0,0-.9-.32A1.2,1.2,0,0,0,4.55,6.54Z"/><path class="cls-1" d="M8.48,4.57A20.69,20.69,0,0,0,6.33,6.39l.08.08A20.48,20.48,0,0,1,8.55,4.66Z"/><path class="cls-2" d="M5.55,5.45a1.18,1.18,0,0,0,.91.36,1.13,1.13,0,0,0,.91-.31,1,1,0,0,0-.87-.39A1.22,1.22,0,0,0,5.55,5.45Z"/><path class="cls-3" d="M7.34,7.26A1.06,1.06,0,0,1,7,6.39a1,1,0,0,1,.37-.87,1.14,1.14,0,0,1,.3.91A1,1,0,0,1,7.34,7.26Z"/><path class="cls-2" d="M8.29,6.4A1.1,1.1,0,0,1,8,5.49a1.07,1.07,0,0,1,.45-.82h0a1.19,1.19,0,0,1,.22.92A1.15,1.15,0,0,1,8.29,6.4Z"/><path class="cls-3" d="M6.64,4.46a1.13,1.13,0,0,0,.87.41,1.13,1.13,0,0,0,.94-.22h0a1,1,0,0,0-.84-.46A1.11,1.11,0,0,0,6.64,4.46Z"/><path class="cls-1" d="M10.83,3.13a12.52,12.52,0,0,0-1.23.7,8.21,8.21,0,0,0-1.17.78l.07.09a9,9,0,0,1,1.16-.78,11.24,11.24,0,0,1,1.22-.69Z"/><path class="cls-2" d="M7.8,3.56A1.11,1.11,0,0,0,8.63,4a1.21,1.21,0,0,0,1-.14,1,1,0,0,0-.81-.53A1.06,1.06,0,0,0,7.8,3.56Z"/><path class="cls-3" d="M9.29,5.63a1.12,1.12,0,0,1-.2-.94A1,1,0,0,1,9.6,3.9a1.15,1.15,0,0,1,.14.94A1.17,1.17,0,0,1,9.29,5.63Z"/><path class="cls-2" d="M10.36,4.92A1.08,1.08,0,0,1,10.23,4a.94.94,0,0,1,.56-.76h0a1.09,1.09,0,0,1,.07.94A1,1,0,0,1,10.36,4.92Z"/><path class="cls-3" d="M9,2.75a1.17,1.17,0,0,0,.8.54,1.25,1.25,0,0,0,.95-.09h0A1.06,1.06,0,0,0,10,2.61,1.15,1.15,0,0,0,9,2.75Z"/><path class="cls-1" d="M13.37,2.07l-1.32.49c-.44.18-.85.4-1.28.6l.05.1c.43-.2.84-.41,1.27-.6l1.31-.48Z"/><path class="cls-2" d="M10.31,2a1.18,1.18,0,0,0,.76.61,1.14,1.14,0,0,0,.95,0,1,1,0,0,0-.7-.64A1.23,1.23,0,0,0,10.31,2Z"/><path class="cls-3" d="M11.46,4.3a1.1,1.1,0,0,1-.05-.94c.14-.41.42-.7.62-.72a1.19,1.19,0,0,1,0,1A1,1,0,0,1,11.46,4.3Z"/><path class="cls-2" d="M12.62,3.76a1,1,0,0,1,0-.93,1.05,1.05,0,0,1,.67-.67h0a1.18,1.18,0,0,1-.07,1A1,1,0,0,1,12.62,3.76Z"/><path class="cls-3" d="M11.65,1.41a1.19,1.19,0,0,0,.71.67,1.1,1.1,0,0,0,1,.06h0a1,1,0,0,0-.66-.69A1.23,1.23,0,0,0,11.65,1.41Z"/><path class="cls-1" d="M16.05,1.45a16.29,16.29,0,0,0-2.74.65l0,.1a16.8,16.8,0,0,1,2.72-.64Z"/><path class="cls-2" d="M13,.9a1.18,1.18,0,0,0,.64.72,1.18,1.18,0,0,0,1,.16A1.05,1.05,0,0,0,14,1,1.15,1.15,0,0,0,13,.9Z"/><path class="cls-3" d="M13.81,3.33a1.09,1.09,0,0,1,.1-.94,1,1,0,0,1,.73-.59,1.12,1.12,0,0,1-.15.94A1.11,1.11,0,0,1,13.81,3.33Z"/><path class="cls-2" d="M15.05,3a1.14,1.14,0,0,1,.16-1A1,1,0,0,1,16,1.53h0a1.13,1.13,0,0,1-.23.92A1.21,1.21,0,0,1,15.05,3Z"/><path class="cls-3" d="M14.46.52a1.13,1.13,0,0,0,.59.75,1.23,1.23,0,0,0,.94.24h0a1.1,1.1,0,0,0-.54-.8A1.06,1.06,0,0,0,14.46.52Z"/><path class="cls-1" d="M18.79,1.22a20.22,20.22,0,0,0-2.8.24l0,.11a19.93,19.93,0,0,1,2.78-.24Z"/><path class="cls-2" d="M15.91.24a1.09,1.09,0,0,0,.52.8,1.31,1.31,0,0,0,.92.3,1.09,1.09,0,0,0-.48-.85A1.19,1.19,0,0,0,15.91.24Z"/><path class="cls-3" d="M16.29,2.76a1.13,1.13,0,0,1,.24-.92,1,1,0,0,1,.82-.48,1.15,1.15,0,0,1-.3.89A1.08,1.08,0,0,1,16.29,2.76Z"/><path class="cls-2" d="M17.56,2.61a1.12,1.12,0,0,1,.31-.89,1.11,1.11,0,0,1,.85-.43h0a1.2,1.2,0,0,1-.36.89A1,1,0,0,1,17.56,2.61Z"/><path class="cls-3" d="M17.37.07a1.15,1.15,0,0,0,.46.85,1.11,1.11,0,0,0,.89.35h0a1,1,0,0,0-.41-.86A1.21,1.21,0,0,0,17.37.07Z"/><path class="cls-1" d="M21.54,1.46a20.36,20.36,0,0,0-2.81-.24v.11a20.07,20.07,0,0,1,2.79.24Z"/><path class="cls-2" d="M18.84,0a1.16,1.16,0,0,0,.39.9,1.14,1.14,0,0,0,.86.43,1,1,0,0,0-.34-.89A1.23,1.23,0,0,0,18.84,0Z"/><path class="cls-3" d="M18.83,2.55a1,1,0,0,1,.38-.85,1.05,1.05,0,0,1,.88-.35,1.16,1.16,0,0,1-.43.85A1,1,0,0,1,18.83,2.55Z"/><path class="cls-2" d="M20.11,2.62a1.1,1.1,0,0,1,.45-.85,1,1,0,0,1,.9-.26h0a1.18,1.18,0,0,1-.5.81A1.21,1.21,0,0,1,20.11,2.62Z"/><path class="cls-3" d="M20.31.08a1.11,1.11,0,0,0,.33.89,1.14,1.14,0,0,0,.82.52h0a1,1,0,0,0-.27-.92A1.06,1.06,0,0,0,20.31.08Z"/><path class="cls-1" d="M24.22,2.09a17.29,17.29,0,0,0-2.74-.64l0,.11a16.8,16.8,0,0,1,2.72.64Z"/><path class="cls-2" d="M21.77.26a1.11,1.11,0,0,0,.25.92,1.3,1.3,0,0,0,.78.57A1,1,0,0,0,22.61.8,1.14,1.14,0,0,0,21.77.26Z"/><path class="cls-3" d="M21.37,2.78A1.09,1.09,0,0,1,21.88,2a.94.94,0,0,1,.92-.2,1.14,1.14,0,0,1-.56.76A1.14,1.14,0,0,1,21.37,2.78Z"/><path class="cls-2" d="M22.62,3a1.08,1.08,0,0,1,.57-.76,1,1,0,0,1,.94-.14h0a1.2,1.2,0,0,1-.62.72A1.05,1.05,0,0,1,22.62,3Z"/><path class="cls-3" d="M23.22.55a1.14,1.14,0,0,0,.18,1,1.21,1.21,0,0,0,.73.61h0A1,1,0,0,0,24,1.16,1.18,1.18,0,0,0,23.22.55Z"/><path class="cls-1" d="M26.76,3.15c-.43-.2-.85-.42-1.28-.6l-1.32-.48,0,.11,1.32.48c.43.18.84.4,1.26.59Z"/><path class="cls-2" d="M24.63,1a1.18,1.18,0,0,0,.1,1,1.14,1.14,0,0,0,.69.67,1,1,0,0,0-.05-1A1.2,1.2,0,0,0,24.63,1Z"/><path class="cls-3" d="M23.84,3.37a1,1,0,0,1,.63-.7,1,1,0,0,1,.94-.07c0,.2-.29.49-.67.68A1,1,0,0,1,23.84,3.37Z"/><path class="cls-2" d="M25,3.8a1,1,0,0,1,.68-.64,1.05,1.05,0,0,1,.94,0h0a1.14,1.14,0,0,1-.73.62A1,1,0,0,1,25,3.8Z"/><path class="cls-3" d="M26,1.46a1.19,1.19,0,0,0,0,1,1.12,1.12,0,0,0,.63.73h0a1,1,0,0,0,0-1A1.19,1.19,0,0,0,26,1.46Z"/><path class="cls-1" d="M29.1,4.6a8.82,8.82,0,0,0-1.17-.78,10.69,10.69,0,0,0-1.23-.69l-.05.1a9.72,9.72,0,0,1,1.22.68A10.22,10.22,0,0,1,29,4.69Z"/><path class="cls-2" d="M27.35,2.09a1.09,1.09,0,0,0,0,1,1.13,1.13,0,0,0,.56.79,1.08,1.08,0,0,0,.1-1A1.06,1.06,0,0,0,27.35,2.09Z"/><path class="cls-3" d="M26.18,4.35a1.16,1.16,0,0,1,.74-.61,1,1,0,0,1,.93.11,1.13,1.13,0,0,1-.77.55A1.16,1.16,0,0,1,26.18,4.35Z"/><path class="cls-2" d="M27.29,5a1.11,1.11,0,0,1,.78-.54.93.93,0,0,1,.93.17h0a1.14,1.14,0,0,1-.81.49A1.13,1.13,0,0,1,27.29,5Z"/><path class="cls-3" d="M28.63,2.82a1.13,1.13,0,0,0-.12,1,1.26,1.26,0,0,0,.5.82h0a1.07,1.07,0,0,0,.19-.95A1.1,1.1,0,0,0,28.63,2.82Z"/><path class="cls-1" d="M31.2,6.38a20.69,20.69,0,0,0-2.15-1.82L29,4.65a19.33,19.33,0,0,1,2.14,1.81Z"/><path class="cls-2" d="M29.85,3.64a1.12,1.12,0,0,0-.2.94,1.17,1.17,0,0,0,.45.85,1.08,1.08,0,0,0,.25-.93A1.19,1.19,0,0,0,29.85,3.64Z"/><path class="cls-3" d="M28.34,5.69a1.11,1.11,0,0,1,.82-.47,1,1,0,0,1,.92.23,1.2,1.2,0,0,1-.84.43A1.05,1.05,0,0,1,28.34,5.69Z"/><path class="cls-2" d="M29.35,6.48a1.1,1.1,0,0,1,.85-.4,1.05,1.05,0,0,1,.9.29h0a1.18,1.18,0,0,1-.89.38A1,1,0,0,1,29.35,6.48Z"/><path class="cls-3" d="M31,4.55a1.17,1.17,0,0,0-.28.93,1.09,1.09,0,0,0,.39.88h0a1,1,0,0,0,.31-.9A1.24,1.24,0,0,0,31,4.55Z"/><path class="cls-1" d="M33,8.48a19.52,19.52,0,0,0-1.82-2.15l-.07.08a20.38,20.38,0,0,1,1.8,2.14Z"/><path class="cls-2" d="M32.09,5.55a1.18,1.18,0,0,0-.35.91,1.13,1.13,0,0,0,.3.91,1,1,0,0,0,.39-.87A1.22,1.22,0,0,0,32.09,5.55Z"/><path class="cls-3" d="M30.28,7.34A1.08,1.08,0,0,1,31.16,7a1,1,0,0,1,.86.37,1.14,1.14,0,0,1-.91.3A1,1,0,0,1,30.28,7.34Z"/><path class="cls-2" d="M31.14,8.29a1.22,1.22,0,0,1,1.74.17h0a1.22,1.22,0,0,1-.93.22A1.18,1.18,0,0,1,31.14,8.29Z"/><path class="cls-3" d="M33.08,6.64a1.13,1.13,0,0,0-.41.87,1.13,1.13,0,0,0,.22.94h0a1,1,0,0,0,.46-.84A1.08,1.08,0,0,0,33.08,6.64Z"/><path class="cls-1" d="M34.41,10.83a12.43,12.43,0,0,0-.69-1.23,10.34,10.34,0,0,0-.78-1.17l-.1.07a8.12,8.12,0,0,1,.78,1.16,9.79,9.79,0,0,1,.69,1.22Z"/><path class="cls-2" d="M34,7.8a1.11,1.11,0,0,0-.47.83,1.25,1.25,0,0,0,.15,1,1.06,1.06,0,0,0,.53-.81A1.09,1.09,0,0,0,34,7.8Z"/><path class="cls-3" d="M31.92,9.29a1.11,1.11,0,0,1,.93-.2,1,1,0,0,1,.79.51,1.12,1.12,0,0,1-.93.14A1.14,1.14,0,0,1,31.92,9.29Z"/><path class="cls-2" d="M32.62,10.36a1.09,1.09,0,0,1,1-.13.92.92,0,0,1,.75.56h0a1.09,1.09,0,0,1-.94.07A1,1,0,0,1,32.62,10.36Z"/><path class="cls-3" d="M34.8,9a1.11,1.11,0,0,0-.54.8,1.26,1.26,0,0,0,.08.95h0a1.07,1.07,0,0,0,.6-.76A1.23,1.23,0,0,0,34.8,9Z"/><path class="cls-1" d="M35.47,13.37,35,12.05c-.18-.44-.4-.85-.6-1.28l-.1.05c.2.43.42.84.6,1.27l.48,1.31Z"/><path class="cls-2" d="M35.51,10.31a1.17,1.17,0,0,0-.6.76,1.1,1.1,0,0,0,0,.95,1,1,0,0,0,.63-.7A1.19,1.19,0,0,0,35.51,10.31Z"/><path class="cls-3" d="M33.24,11.46a1.12,1.12,0,0,1,.95-.05,1.07,1.07,0,0,1,.72.62,1.19,1.19,0,0,1-1,0A1,1,0,0,1,33.24,11.46Z"/><path class="cls-2" d="M33.78,12.62a1.27,1.27,0,0,1,1.6.7h0a1.18,1.18,0,0,1-1-.07A1,1,0,0,1,33.78,12.62Z"/><path class="cls-3" d="M36.14,11.65a1.19,1.19,0,0,0-.67.71,1.14,1.14,0,0,0-.07,1h0a1,1,0,0,0,.69-.66A1.24,1.24,0,0,0,36.14,11.65Z"/><path class="cls-1" d="M36.09,16.05a17.29,17.29,0,0,0-.64-2.74l-.11,0A16.8,16.8,0,0,1,36,16.07Z"/><path class="cls-2" d="M36.64,13a1.14,1.14,0,0,0-.71.64,1.14,1.14,0,0,0-.16,1,1.07,1.07,0,0,0,.75-.6A1.14,1.14,0,0,0,36.64,13Z"/><path class="cls-3" d="M34.22,13.81a1.09,1.09,0,0,1,.94.1,1,1,0,0,1,.59.73,1.11,1.11,0,0,1-.94-.15A1.08,1.08,0,0,1,34.22,13.81Z"/><path class="cls-2" d="M34.55,15.05a1.13,1.13,0,0,1,.94.16A1,1,0,0,1,36,16h0a1.41,1.41,0,0,1-1.47-.94Z"/><path class="cls-3" d="M37,14.46a1.09,1.09,0,0,0-.75.59A1.15,1.15,0,0,0,36,16h0a1.11,1.11,0,0,0,.8-.54A1.09,1.09,0,0,0,37,14.46Z"/><path class="cls-1" d="M36.33,18.79a20.23,20.23,0,0,0-.25-2.8L36,16a19.93,19.93,0,0,1,.24,2.78Z"/><path class="cls-2" d="M37.3,15.91a1.11,1.11,0,0,0-.8.52,1.29,1.29,0,0,0-.29.92,1.1,1.1,0,0,0,.85-.48A1.14,1.14,0,0,0,37.3,15.91Z"/><path class="cls-3" d="M34.79,16.29a1.14,1.14,0,0,1,.92.24,1,1,0,0,1,.48.82,1.13,1.13,0,0,1-.89-.3A1,1,0,0,1,34.79,16.29Z"/><path class="cls-2" d="M34.93,17.56a1.11,1.11,0,0,1,.89.31,1.09,1.09,0,0,1,.44.85h0a1.22,1.22,0,0,1-.9-.36A1.08,1.08,0,0,1,34.93,17.56Z"/><path class="cls-3" d="M37.47,17.37a1.17,1.17,0,0,0-.85.46,1.09,1.09,0,0,0-.34.89h0a1,1,0,0,0,.85-.41A1.18,1.18,0,0,0,37.47,17.37Z"/><path class="cls-4" d="M8.77,12.92v6.67c0,7.36,4.48,13.33,10,13.33s10-6,10-13.33V12.92Z"/><path class="cls-4" d="M16.36,32.13,15.1,33.6a3.19,3.19,0,0,0-.71,2.7l1,4.75a3.17,3.17,0,0,0,3.11,2.54h.6a3.18,3.18,0,0,0,3.12-2.54l1-4.75a3.15,3.15,0,0,0-.71-2.7l-1.26-1.47A3.19,3.19,0,0,0,16.36,32.13Z"/><path class="cls-4" d="M16.44,39.11l-2.17,3.77a2.69,2.69,0,0,0,2.33,4H21a2.68,2.68,0,0,0,2.32-4L21.1,39.11A2.69,2.69,0,0,0,16.44,39.11Z"/><text class="cls-5" transform="translate(14.67 13.98)">3</text></g></g></svg>