<svg xmlns="http://www.w3.org/2000/svg" viewBox="0 0 30.97 21.89"><defs><style>.cls-1{fill:none;stroke:#bbbaba;stroke-linecap:round;stroke-linejoin:round;}.cls-2{font-size:12px;fill:#bbbaba;font-family:MyriadPro-Regular, Myriad Pro;}</style></defs><title>rank2</title><g id="Layer_2" data-name="Layer 2"><g id="Layer_1-2" data-name="Layer 1"><polyline class="cls-1" points="10.47 7.97 10.97 7.68 10.49 9.62 13.87 7.67 10.5 10.8 15.93 7.66"/><polyline class="cls-1" points="0.5 11.4 1 11.11 0.5 12.82 3.47 11.11 0.5 14.99 7.24 11.1 0.5 16.34 9.6 11.09 0.5 18.11 18.61 7.66 0.5 19.71 20.44 8.2 0.5 21.2 20.45 9.69 3.53 21.39 20.46 11.62 5.88 21.39 20.46 12.97 8.06 21.39 20.47 14.22 12.02 21.38 23.87 14.54 14.95 21.38 26.81 14.53 18.45 21.38 30.32 14.52 20.9 21.37 30.45 15.86 24.49 21.37 30.45 17.93 26.81 21.37 30.46 19.26 29.1 21.36 30.47 20.58"/><text class="cls-2" transform="translate(2.47 10.04)">2</text></g></g></svg>